<?xml version="1.0" encoding="UTF-8"?>
<svg id="Layer_2" xmlns="http://www.w3.org/2000/svg" viewBox="0 0 686.83 696.5">
  <defs>
    <style>
      .cls-1 {
        letter-spacing: 0em;
      }

      .cls-2 {
        fill: #f44a66;
      }

      .cls-3 {
        fill: #fff;
      }

      .cls-4 {
        font-family: MyriadPro-Regular, 'Myriad Pro';
        font-size: 46.92px;
      }

      .cls-5 {
        letter-spacing: -.01em;
      }
    </style>
  </defs>
  <g id="Layer_1-2" data-name="Layer_1">
    <g>
      <g>
        <path d="M343.42,696c-91.59,0-177.71-36.17-242.48-101.85C36.17,528.47.5,441.14.5,348.25S36.17,168.03,100.94,102.35C165.71,36.67,251.82.5,343.42.5s177.71,36.17,242.48,101.85c64.77,65.68,100.44,153.01,100.44,245.9s-35.67,180.22-100.44,245.9c-64.77,65.68-150.88,101.85-242.48,101.85Z"/>
        <path class="cls-3" d="M343.42,1c46.22,0,91.07,9.18,133.28,27.29,40.77,17.49,77.39,42.53,108.84,74.42,31.45,31.89,56.14,69.03,73.39,110.38,17.86,42.81,26.91,88.29,26.91,135.17s-9.05,92.36-26.91,135.17c-17.25,41.35-41.94,78.49-73.39,110.38-31.45,31.89-68.07,56.93-108.84,74.42-42.21,18.11-87.05,27.29-133.28,27.29s-91.07-9.18-133.28-27.29c-40.77-17.49-77.39-42.53-108.84-74.42-31.45-31.89-56.14-69.03-73.39-110.38C10.05,440.61,1,395.13,1,348.25s9.05-92.36,26.91-135.17c17.25-41.35,41.94-78.49,73.39-110.38,31.45-31.89,68.07-56.93,108.84-74.42C252.35,10.18,297.19,1,343.42,1M343.42,0C153.75,0,0,155.92,0,348.25s153.75,348.25,343.42,348.25,343.42-155.92,343.42-348.25S533.08,0,343.42,0h0Z"/>
      </g>
      <g>
        <path class="cls-3" d="M336.33,524.33c-107.87,0-195.63-83.06-195.63-185.16s87.76-185.16,195.63-185.16,195.63,83.06,195.63,185.16-87.76,185.16-195.63,185.16Z"/>
        <path d="M336.33,154.52c26.35,0,51.91,4.88,75.97,14.52,23.24,9.3,44.11,22.62,62.03,39.59,17.92,16.96,31.98,36.71,41.81,58.7,10.17,22.76,15.33,46.94,15.33,71.86s-5.16,49.1-15.33,71.86c-9.82,21.99-23.89,41.74-41.81,58.7-17.92,16.96-38.79,30.28-62.03,39.59-24.06,9.63-49.62,14.52-75.97,14.52s-51.91-4.88-75.97-14.52c-23.24-9.3-44.11-22.62-62.03-39.59-17.92-16.96-31.98-36.71-41.81-58.7-10.17-22.76-15.33-46.94-15.33-71.86s5.16-49.1,15.33-71.86c9.82-21.99,23.89-41.74,41.81-58.7,17.92-16.96,38.79-30.28,62.03-39.59,24.06-9.63,49.62-14.52,75.97-14.52M336.33,153.52c-108.32,0-196.13,83.12-196.13,185.66s87.81,185.66,196.13,185.66,196.13-83.12,196.13-185.66-87.81-185.66-196.13-185.66h0Z"/>
      </g>
      <path class="cls-2" d="M336.17,261.82l147.64,7.13c30.83,1.49,43.89,38.84,21.86,62.51l-136.99,147.13c-14.5,15.57-37.91,17.04-52.29,3.28l-150.15-143.76c-23.03-22.05-6.76-63.26,25.95-65.73l139.51-10.51c1.49-.11,2.99-.13,4.47-.06Z"/>
      <text class="cls-4" transform="translate(216.37 338.85) scale(1.1 1)"><tspan class="cls-1" x="0" y="0">S</tspan><tspan x="23.41" y="0">elv</tspan><tspan class="cls-5" x="80.56" y="0">f</tspan><tspan x="93.65" y="0">ølgelig!</tspan></text>
    </g>
  </g>
</svg>