<?xml version="1.0" encoding="UTF-8"?>
<svg id="Layer_2" xmlns="http://www.w3.org/2000/svg" viewBox="0 0 615 615">
  <defs>
    <style>
      .cls-1 {
        fill: #fff;
      }

      .cls-2 {
        font-family: FranklinGothic-Demi, 'Franklin Gothic Demi';
        font-size: 346.71px;
        font-weight: 300;
      }
    </style>
  </defs>
  <g id="Layer_1-2" data-name="Layer_1">
    <g>
      <g>
        <path d="M307.5,614.5c-82,0-159.1-31.93-217.08-89.92C32.43,466.6.5,389.5.5,307.5s31.93-159.1,89.92-217.08C148.4,32.43,225.5.5,307.5.5s159.1,31.93,217.08,89.92c57.98,57.98,89.92,135.08,89.92,217.08s-31.93,159.1-89.92,217.08c-57.98,57.98-135.08,89.92-217.08,89.92Z"/>
        <path class="cls-1" d="M307.5,1c41.38,0,81.52,8.1,119.3,24.09,36.5,15.44,69.28,37.54,97.42,65.69,28.15,28.15,50.25,60.93,65.69,97.42,15.98,37.79,24.09,77.93,24.09,119.3s-8.1,81.52-24.09,119.3c-15.44,36.5-37.54,69.28-65.69,97.42-28.15,28.15-60.93,50.25-97.42,65.69-37.79,15.98-77.93,24.09-119.3,24.09s-81.52-8.1-119.3-24.09c-36.5-15.44-69.28-37.54-97.42-65.69-28.15-28.15-50.25-60.93-65.69-97.42C9.1,389.02,1,348.88,1,307.5s8.1-81.52,24.09-119.3c15.44-36.5,37.54-69.28,65.69-97.42,28.15-28.15,60.93-50.25,97.42-65.69C225.98,9.1,266.12,1,307.5,1M307.5,0C137.67,0,0,137.67,0,307.5s137.67,307.5,307.5,307.5,307.5-137.67,307.5-307.5S477.33,0,307.5,0h0Z"/>
      </g>
      <g>
        <path class="cls-1" d="M301.16,462.92c-96.56,0-175.12-73.32-175.12-163.43s78.56-163.43,175.12-163.43,175.12,73.32,175.12,163.43-78.56,163.43-175.12,163.43Z"/>
        <path d="M301.16,136.55c46.66,0,90.51,16.96,123.5,47.75,32.97,30.77,51.12,71.68,51.12,115.19s-18.15,84.42-51.12,115.19c-32.98,30.79-76.84,47.75-123.5,47.75s-90.51-16.96-123.5-47.75c-32.97-30.77-51.12-71.68-51.12-115.19s18.15-84.42,51.12-115.19c32.98-30.79,76.84-47.75,123.5-47.75M301.16,135.55c-96.99,0-175.62,73.4-175.62,163.93s78.63,163.93,175.62,163.93,175.62-73.4,175.62-163.93-78.63-163.93-175.62-163.93h0Z"/>
      </g>
      <text class="cls-2" transform="translate(207.1 417.69) scale(.97 1)"><tspan x="0" y="0">8</tspan></text>
    </g>
  </g>
</svg>