<?xml version="1.0" encoding="UTF-8"?>
<svg id="Layer_2" xmlns="http://www.w3.org/2000/svg" viewBox="0 0 524.14 524.14">
  <defs>
    <style>
      .cls-1 {
        font-family: Broadway, Broadway;
        font-size: 45.29px;
      }

      .cls-1, .cls-2, .cls-3, .cls-4, .cls-5, .cls-6 {
        fill: #231f20;
      }

      .cls-7 {
        fill: #a97c50;
      }

      .cls-7, .cls-8, .cls-3, .cls-9, .cls-4, .cls-10, .cls-5, .cls-11, .cls-12, .cls-6, .cls-13, .cls-14 {
        stroke-miterlimit: 10;
      }

      .cls-7, .cls-8, .cls-3, .cls-9, .cls-4, .cls-10, .cls-5, .cls-11, .cls-12, .cls-13, .cls-14 {
        stroke: #231f20;
      }

      .cls-15, .cls-8 {
        fill: #fff;
      }

      .cls-3, .cls-9 {
        stroke-width: 3px;
      }

      .cls-9 {
        fill: #939598;
      }

      .cls-10 {
        fill: #262262;
      }

      .cls-5 {
        stroke-width: 2px;
      }

      .cls-11 {
        fill: #c49a6c;
      }

      .cls-12, .cls-16 {
        fill: #be1e2d;
      }

      .cls-6 {
        stroke: #fff;
      }

      .cls-13 {
        fill: none;
      }

      .cls-14 {
        fill: #6d6e71;
      }
    </style>
  </defs>
  <g id="Layer_1-2" data-name="Layer_1">
    <g>
      <circle id="Background" class="cls-9" cx="262.07" cy="262.07" r="260.57"/>
      <path id="Blue_quarter" class="cls-10" d="M256.47,274.09h198.98c0,109.16-89.82,198.98-198.98,198.98S57.49,383.25,57.49,274.09,146.82,75.54,255.67,75.11l.8,198.98Z"/>
      <circle id="Head_protection" class="cls-14" cx="256.47" cy="274.09" r="93.6"/>
      <ellipse id="Skin_tone" class="cls-11" cx="256.47" cy="274.09" rx="83.29" ry="81.12"/>
      <ellipse id="Eye__x28_out-left_x29_" class="cls-8" cx="221.32" cy="238.04" rx="13.18" ry="24.04"/>
      <ellipse id="Eye__x28_out-right_x29_" class="cls-8" cx="292.98" cy="238.04" rx="13.18" ry="24.04"/>
      <path id="Mouth" class="cls-4" d="M256.47,296.37h48.59c0,25.96-21.93,47.32-48.59,47.32s-48.29-21.03-48.59-46.79l48.59-.53Z"/>
      <ellipse id="Pupil_left" class="cls-6" cx="221.32" cy="241.21" rx="6.67" ry="14.28"/>
      <ellipse id="Pupil_right" class="cls-6" cx="292.98" cy="241.21" rx="6.67" ry="14.28"/>
      <path id="Nose" class="cls-7" d="M264.78,288.62h-16.62c-4.23,0-7.23-5.68-5.94-11.23l8.31-35.88c1.85-7.99,10.04-7.99,11.89,0l8.31,35.88c1.29,5.56-1.72,11.23-5.94,11.23Z"/>
      <g>
        <path class="cls-15" d="M155.37,328.83c-1.16.97-2.32,1.94-3.47,2.91-1.84,1.55-3.67,3.11-5.51,4.66-1.32,1.15-2.65,2.3-3.97,3.45-2.8,2.45-5.6,4.9-8.39,7.36.34.4.67.8,1.01,1.2,2.09,2.3,4.22,4.53,6.41,6.68.4.39.79.78,1.19,1.17.6.59.72,1.07.36,1.44-.32.33-.66.34-1.01.05-.08-.06-.33-.28-.74-.67-5.97-5.98-11.58-12.53-16.75-19.65,2.23-1.59,4.47-3.19,6.7-4.79,1.37-.98,2.74-1.96,4.11-2.94,1.55-1.11,3.1-2.22,4.65-3.33,2.33-1.73,4.66-3.46,7-5.19.51-.36,1.01-.72,1.52-1.08,2.21,3.04,4.52,5.95,6.91,8.73Z"/>
        <path class="cls-15" d="M167.79,348.49c1.49,1.24,2.52,2.88,3.13,4.96.57,1.92.61,3.96.12,6.14-.43,1.92-1.21,3.72-2.37,5.37-.8,1.13-1.8,2.13-3.01,2.99-1.21.86-2.49,1.47-3.82,1.83-1.85.48-3.73.48-5.6-.03-1.54-.41-2.93-1.14-4.17-2.16-2.07-1.72-3.38-3.94-3.87-6.58-.4-2.05-.22-4.07.51-6.07.63-1.68,1.59-3.17,2.86-4.5,2.49-2.58,5.39-3.9,8.64-4.12,3.04-.19,5.52.51,7.58,2.17ZM166.5,349.22c-4.68,5.59-9.36,11.18-14.04,16.77.32.3.54.51.67.62,1.51,1.25,3.33,1.98,5.41,2.16,2.01.16,3.89-.27,5.62-1.26,1.37-.79,2.56-1.9,3.57-3.31,2.04-2.83,2.76-5.79,2.32-8.84-.36-2.47-1.3-4.32-2.88-5.63-.13-.11-.36-.28-.67-.5Z"/>
        <path class="cls-15" d="M182.2,367.49c-1.41,2.39-2.83,4.78-4.24,7.17-1.43,2.5-2.86,4.99-4.29,7.49-3.07-1.8-6.1-3.71-9.07-5.72.23-.32.46-.65.69-.97.83-1.22,1.67-2.43,2.5-3.65,1.51-2.18,3.01-4.37,4.52-6.55,1.63-2.46,3.26-4.92,4.89-7.38.23-.35.46-.7.69-1.05,2.53,1.72,5.11,3.35,7.73,4.88-.75,1.28-1.5,2.57-2.26,3.85,2.1-.81,3.47-1.32,4.16-1.47,1.59-.32,2.85-.24,3.8.26.58.3.98.71,1.21,1.21.22.5.22.99-.02,1.47-.19.38-.46.63-.82.75-.36.13-.71.1-1.07-.08-.22-.12-.43-.32-.63-.62-.32-.51-.64-.85-.94-1.02-.76-.41-1.65-.49-2.7-.27-1.05.22-2.42.8-4.14,1.7Z"/>
        <path class="cls-15" d="M194.72,380.38c-.9,2.05-1.81,4.1-2.71,6.15-.52,1.19-.79,1.97-.79,2.35,0,.72.48,1.3,1.46,1.71,1.45.61,3.08.77,4.83.47,1.76-.3,3.43-1.04,5.01-2.19.51-.38.87-.62,1.06-.7.2-.08.38-.1.55-.04.21.07.35.22.43.43.08.22.07.46-.02.72-.2.57-.88,1.2-2.06,1.87-1.54.85-3.3,1.35-5.25,1.48-1.95.13-3.73-.15-5.3-.81-2.69-1.14-4.63-3.17-5.72-5.99-.63-1.65-.83-3.43-.63-5.31.18-1.66.63-3.18,1.35-4.57.69-1.34,1.6-2.56,2.73-3.69,1.12-1.12,2.31-1.99,3.55-2.61,1.44-.73,2.9-1.14,4.38-1.24,1.45-.1,2.81.12,4.08.66,1.98.84,3.49,2.28,4.59,4.37,1.72,3.26,1.93,7.07.4,11.49-1.4-.48-2.79-.97-4.17-1.49-1.79-.66-3.56-1.35-5.33-2.08-.81-.32-1.62-.65-2.42-.99ZM199.77,380.95c.79-1.95,1.57-3.91,2.36-5.86.48-1.27.76-2.03.84-2.28.08-.26.09-.52.05-.78-.1-.65-.61-1.16-1.54-1.55-.95-.4-1.67-.36-2.17.13-.31.29-.79,1.19-1.46,2.69-.85,1.93-1.7,3.85-2.55,5.78.69.34,1.39.67,2.09.99.79.3,1.58.59,2.38.88Z"/>
        <path class="cls-15" d="M234.74,382.56c1.73-1.21,3.26-2.06,4.63-2.55,1.37-.49,2.75-.67,4.18-.55,2.61.23,4.37,1.38,5.33,3.55.27.65.45,1.39.54,2.23.08.84.09,2.07.02,3.7-.1,1.9-.21,3.81-.32,5.71-.02.45-.04.89-.06,1.34-.06,2.4-.13,4.81-.19,7.21,0,.3-.01.59-.02.89-3.46-.14-6.93-.4-10.38-.76.27-2.27.54-4.53.8-6.8.27-2.28.55-4.56.82-6.84.09-.93.18-1.85.27-2.78.1-1.02.16-1.62.19-1.79.13-1.13.11-1.93-.05-2.38-.17-.45-.52-.71-1.07-.77-.58-.07-1.24.07-1.99.39-.75.33-1.59.86-2.53,1.58-.02.57-.11,1.37-.26,2.41-.27,1.79-.54,3.57-.82,5.36-.3,2.01-.61,4.01-.92,6.02-.26,1.77-.46,3.39-.6,4.84-3.43-.49-6.85-1.09-10.25-1.8.34-1.54.68-3.08,1.02-4.61.72-3.32,1.45-6.63,2.17-9.95.69-3.28,1.04-5.1,1.04-5.45,0-.63-.35-1.02-1.05-1.18-.53-.12-1.17-.05-1.92.2-.76.25-1.64.68-2.65,1.29-.77,2.96-1.54,5.92-2.31,8.87-.76,3.15-1.52,6.31-2.28,9.46-3.37-.84-6.73-1.79-10.05-2.85.09-.28.18-.55.26-.83.41-1.25.83-2.5,1.24-3.74.55-1.7,1.11-3.41,1.66-5.11.54-1.65,1.07-3.3,1.61-4.95.82-2.64,1.64-5.27,2.46-7.91,2.83.9,5.69,1.71,8.56,2.43-.25.98-.49,1.96-.74,2.94,1.58-.86,3.06-1.44,4.45-1.75,1.39-.31,2.7-.35,3.96-.11,1.89.36,3.3,1.21,4.29,2.59.4.54.7,1.36.93,2.44Z"/>
        <path class="cls-15" d="M271.33,379.69c.02.21.05.42.07.62.12,1.12.23,2.24.35,3.36.19,1.74.37,3.48.56,5.21.28,2.64.56,5.29.84,7.93.19,1.48.39,2.96.59,4.45.09.64.17,1.29.26,1.93-3.45.39-6.91.67-10.37.84-.1-2.66-.2-5.31-.3-7.97-.1-2.35-.2-4.69-.3-7.04-.07-1.23-.15-2.47-.22-3.7-.09-1.37-.17-2.74-.26-4.11,0-.27-.02-.55-.02-.82,2.94-.15,5.88-.38,8.81-.71ZM266.26,372.56c2.86-.24,4.4.57,4.64,2.55.11.96-.19,1.76-.92,2.38-.73.62-1.81,1-3.24,1.12-2.86.23-4.34-.75-4.44-2.79-.09-1.97,1.23-3.01,3.96-3.25Z"/>
        <path class="cls-15" d="M275.4,379.17c2.92-.42,5.83-.93,8.72-1.53.18.93.35,1.86.53,2.79.91-1.47,1.76-2.57,2.59-3.29.83-.72,1.8-1.22,2.93-1.51,2.31-.59,4.46-.06,6.58,1.63,1.89,1.51,3.35,3.7,4.29,6.64,1,3.12,1.03,5.95-.04,8.47-.98,2.33-2.71,3.84-5.09,4.45-1.26.32-2.58.35-3.96.07-1.38-.28-2.8-.87-4.26-1.76.06.26.12.52.18.78.2.92.4,1.85.6,2.77.18.77.35,1.54.53,2.3.06.26.12.52.19.78-3.41.71-6.83,1.31-10.27,1.8-.29-2.04-.58-4.08-.86-6.12-.26-1.9-.52-3.79-.78-5.69-.59-3.95-1.18-7.9-1.77-11.85-.04-.25-.07-.5-.11-.75ZM285.05,382.34c.77,3.69,1.55,7.38,2.32,11.07,1.12.77,2.12,1.31,2.97,1.63.85.32,1.56.41,2.11.28.51-.12.75-.47.7-1.04-.02-.19-.23-1.14-.65-2.85-.85-3.43-1.7-6.86-2.54-10.29-.3-1.22-.5-1.95-.59-2.18-.23-.57-.54-.81-.93-.71-.51.12-1.06.55-1.67,1.29-.6.74-1.18,1.67-1.72,2.8Z"/>
        <path class="cls-15" d="M306.64,391.85c.25-.09.64.01,1.18.29.85.43,1.95.67,3.28.7,1.33.03,2.52-.16,3.53-.55.47-.18.78-.41.95-.67.17-.26.18-.55.05-.88-.13-.32-.45-.65-.95-.97-.5-.33-1.55-.91-3.12-1.78-3.83-2.1-6.24-3.75-7.44-4.77-1.19-1.02-1.97-2.13-2.37-3.31-.34-1.03-.42-2.09-.25-3.2.17-1.1.58-2.13,1.2-3.09,1.04-1.6,2.43-2.73,4.23-3.45,1.33-.53,2.86-.76,4.64-.72,1.39.04,2.23.36,2.52.99.09.2.1.41.04.63-.07.22-.18.37-.36.45-.21.09-.71.02-1.49-.22-1.6-.5-3.06-.48-4.42.07-.48.19-.81.43-.98.72-.17.28-.18.62-.03,1.01.18.46.63.95,1.37,1.46.74.51,2.15,1.32,4.29,2.37,2.09,1.02,3.47,1.66,4.08,1.98.61.32,1.24.73,1.89,1.2,1.12.82,1.99,1.87,2.59,3.16.94,2.02.8,4.07-.5,6.15-1.06,1.71-2.74,3.05-5,3.94-2.52.99-5.01,1.22-7.38.69-.7-.17-1.19-.34-1.48-.5-.29-.16-.48-.38-.57-.66-.17-.51-.01-.85.47-1.03Z"/>
        <path class="cls-15" d="M336.54,354.58c3.3,4.62,6.61,9.24,9.91,13.87,1.31,1.78,2.62,3.57,3.92,5.35-2.91,2.1-5.88,4.1-8.9,5.98-.54-.86-1.08-1.73-1.62-2.59-.8,1.98-1.71,3.58-2.68,4.78-.97,1.2-2.15,2.19-3.54,2.94-2.54,1.38-4.82,1.53-6.76.49-.72-.38-1.35-.92-1.88-1.6-.53-.68-1.14-1.72-1.83-3.13-.73-1.53-1.46-3.05-2.19-4.58-.49-1.02-.98-2.03-1.47-3.05-1.07-2.12-2.14-4.25-3.21-6.37,2.7-1.31,5.37-2.72,7.99-4.22,1.77,3.17,3.53,6.34,5.3,9.51.69,1.19,1.37,2.38,2.06,3.57.46.8.93,1.6,1.39,2.4.82,1.44,1.4,2.26,1.73,2.46.39.21.86.16,1.41-.17.57-.33,1.06-.83,1.47-1.5.41-.67.86-1.69,1.31-3.06-.5-.81-.99-1.61-1.49-2.42-1.36-2.2-2.71-4.39-4.07-6.59-1.38-2.13-2.75-4.26-4.12-6.4-.12-.19-.24-.38-.36-.57,2.58-1.61,5.11-3.31,7.6-5.11Z"/>
        <path class="cls-15" d="M360.02,338.35c.06-2.2.29-4.04.72-5.54.44-1.5,1.14-2.84,2.13-4.07,1.81-2.25,3.86-3.23,6.27-2.92.71.1,1.44.34,2.19.73.75.38,1.78,1.05,3.11,2.01,1.53,1.14,3.05,2.29,4.58,3.43.36.26.72.53,1.09.79,1.97,1.38,3.94,2.76,5.91,4.14.24.17.49.34.73.5-2.27,3.13-4.63,6.14-7.06,9.05-1.73-1.49-3.46-2.98-5.19-4.47-1.74-1.5-3.47-3.01-5.21-4.51-.72-.59-1.44-1.19-2.15-1.78-.79-.65-1.25-1.04-1.38-1.16-.87-.74-1.54-1.16-2.02-1.27-.48-.1-.91.08-1.3.53-.41.49-.71,1.15-.9,2-.19.85-.26,1.89-.23,3.12.46.33,1.08.86,1.86,1.57,1.32,1.23,2.65,2.46,3.97,3.69,1.49,1.38,2.98,2.76,4.46,4.14,1.32,1.21,2.54,2.28,3.67,3.21-2.52,2.77-5.11,5.43-7.78,7.99-1.07-1.15-2.15-2.3-3.22-3.46-2.33-2.47-4.65-4.95-6.98-7.42-2.31-2.42-3.62-3.74-3.91-3.94-.53-.35-1.07-.27-1.62.25-.42.39-.75.98-1,1.77-.25.79-.43,1.79-.53,3,2,2.31,4,4.63,5.99,6.94,2.17,2.42,4.33,4.83,6.5,7.24-2.74,2.42-5.55,4.74-8.41,6.94-.18-.23-.35-.46-.53-.69-.79-1.05-1.58-2.1-2.37-3.16-1.09-1.43-2.17-2.85-3.26-4.28-1.05-1.38-2.1-2.76-3.15-4.14-1.7-2.17-3.4-4.35-5.1-6.53,2.44-1.88,4.83-3.85,7.17-5.92.67.76,1.34,1.52,2,2.28.24-1.84.65-3.43,1.24-4.81.59-1.37,1.36-2.54,2.32-3.5,1.45-1.45,3.03-2.22,4.79-2.33.7-.05,1.57.13,2.61.53Z"/>
        <path class="cls-15" d="M151.69,396.99c-2.9,4.23-5.79,8.45-8.7,12.68-2.38,3.64-4.77,7.28-7.15,10.93.74.62,1.38,1.1,1.9,1.44,1.51.99,3.21,1.78,5.08,2.34,1.87.56,3.65.83,5.32.8,1.08-.02,2.28-.19,3.59-.53,1.31-.34,2.44-.76,3.38-1.26.54-.29.99-.35,1.32-.16.51.28.67.59.47.95-.21.38-.94.82-2.21,1.3-1.27.48-2.58.82-3.91,1.01-2.89.4-5.91.07-8.99-1.03-1.85-.66-3.53-1.48-5.02-2.47-2.18-1.43-4.1-3.27-5.73-5.5-2.63-3.56-3.84-7.24-3.69-10.91.12-3.05,1.09-5.64,2.83-7.8,1.77-2.21,4.13-3.74,7.03-4.67,3.08-.98,6.32-1.08,9.75-.36,2.49.54,4.82,1.54,7.05,3.01,3.82,2.52,6.44,5.73,7.99,9.85.74,1.97.99,3.21.71,3.73-.08.14-.22.23-.43.26-.21.03-.4,0-.57-.09-.29-.16-.49-.6-.61-1.31-.38-2.19-1.28-4.28-2.69-6.31-1.42-2.03-3.15-3.72-5.25-5.1-.49-.33-.99-.59-1.48-.8Z"/>
        <path class="cls-15" d="M178.11,416.96c2.38,1.05,4.39,2.58,6.09,4.64,1.57,1.9,2.56,3.99,2.94,6.32.34,2.05.2,4.03-.49,5.93-.47,1.31-1.24,2.51-2.32,3.61-1.08,1.1-2.34,1.96-3.77,2.58-1.99.84-4.21,1.18-6.62,1.01-1.98-.14-3.93-.62-5.81-1.46-3.15-1.39-5.63-3.46-7.36-6.12-1.36-2.06-2.06-4.22-2.11-6.45-.04-1.88.39-3.62,1.26-5.25,1.69-3.17,4.45-5.05,8.16-5.84,3.48-.71,6.78-.37,10.03,1.01ZM176.9,417.94c-3,6.65-6.01,13.29-9.02,19.93.5.26.85.43,1.05.51,2.3,1.01,4.75,1.42,7.29,1.22,2.44-.21,4.48-1,6.13-2.33,1.3-1.06,2.23-2.41,2.83-4.04,1.2-3.28.76-6.43-1.16-9.52-1.56-2.49-3.56-4.26-6.07-5.37-.21-.09-.56-.23-1.04-.41Z"/>
        <path class="cls-15" d="M224.03,434.79c2.32-1.09,4.4-1.84,6.27-2.24,1.87-.4,3.78-.5,5.76-.3,3.62.37,6.06,1.59,7.39,3.8.38.66.63,1.41.74,2.25.11.84.13,2.07.03,3.7-.14,1.9-.28,3.8-.43,5.7-.03.45-.05.89-.08,1.34-.09,2.4-.17,4.81-.25,7.21,0,.3-.02.59-.02.89-4.6-.26-9.19-.66-13.77-1.21.31-2.26.62-4.52.93-6.78.32-2.28.64-4.55.95-6.83.1-.93.21-1.85.31-2.78.11-1.02.18-1.62.21-1.79.15-1.13.11-1.93-.13-2.39-.24-.47-.73-.74-1.49-.84-.8-.1-1.71-.01-2.72.26-1.02.28-2.14.75-3.4,1.41,0,.57-.1,1.38-.26,2.42-.3,1.78-.61,3.56-.91,5.34-.34,2-.68,4-1.02,6-.28,1.77-.5,3.38-.64,4.83-4.55-.72-9.08-1.59-13.58-2.6.37-1.53.74-3.06,1.11-4.59.78-3.3,1.56-6.61,2.34-9.91.74-3.27,1.1-5.08,1.08-5.44-.04-.65-.54-1.07-1.5-1.3-.73-.17-1.59-.16-2.6,0-1.01.17-2.17.52-3.5,1.04-.82,2.94-1.64,5.89-2.47,8.83-.8,3.14-1.59,6.29-2.39,9.44-4.47-1.18-8.9-2.51-13.3-3.98.09-.27.18-.55.28-.82.44-1.24.88-2.48,1.31-3.72.58-1.7,1.16-3.39,1.74-5.09.56-1.64,1.12-3.28,1.69-4.92.85-2.63,1.7-5.25,2.55-7.88,3.91,1.31,7.85,2.49,11.82,3.54-.26.98-.52,1.95-.78,2.93,2.08-.71,4.04-1.15,5.93-1.32,1.88-.17,3.68-.09,5.41.27,2.61.54,4.6,1.51,6.01,2.99.57.58,1.02,1.43,1.37,2.54Z"/>
        <path class="cls-15" d="M250.21,433.75c4.07.11,8.15.1,12.23-.04,0,.95.02,1.89.03,2.84,1.59-1.31,3.02-2.27,4.33-2.86,1.31-.59,2.76-.94,4.36-1.07,3.28-.26,6.04.55,8.39,2.5,2.11,1.75,3.42,4.12,3.84,7.17.45,3.24-.29,6.08-2.36,8.45-1.9,2.19-4.52,3.46-7.77,3.73-1.72.14-3.45-.03-5.18-.52-1.73-.49-3.45-1.29-5.15-2.4.02.27.04.53.05.8.04.95.08,1.89.13,2.84.05.79.09,1.57.14,2.36.02.27.04.53.06.8-4.6.16-9.2.18-13.8.05.07-2.06.13-4.12.2-6.17.07-1.91.14-3.83.21-5.74.09-3.99.17-7.99.26-11.98,0-.25.01-.5.02-.76ZM262.53,438.49c.13,3.77.27,7.54.4,11.3,1.3.94,2.47,1.63,3.51,2.07,1.04.45,1.94.64,2.69.59.7-.04,1.09-.35,1.17-.92.02-.19-.02-1.16-.13-2.92-.25-3.52-.5-7.05-.75-10.57-.09-1.25-.16-2-.23-2.24-.15-.6-.51-.88-1.07-.84-.72.05-1.58.39-2.58,1.03-1,.64-2.01,1.47-3.02,2.5Z"/>
        <path class="cls-15" d="M304.81,437c-.22-.85-.43-1.71-.65-2.56-.47-1.77-.77-2.86-.92-3.25-.15-.39-.38-.72-.7-.99-.76-.65-2.17-.71-4.25-.24-3.21.72-5.5,2.1-6.95,4.25-.59.87-1.14,1.35-1.64,1.44-.37.06-.72,0-1.03-.17-.31-.18-.49-.42-.54-.72-.15-.9.89-2.01,3.07-3.4,2.07-1.33,4.84-2.35,8.34-3.17,5.75-1.35,9.97-1.76,12.8-.93,1.23.37,2.14.91,2.72,1.65.58.74,1.21,2.17,1.89,4.29.88,2.73,1.75,5.46,2.63,8.19.42,1.53.84,2.66,1.26,3.36.42.71,1.09,1.4,2.02,2.07-4.81,1.57-9.67,2.96-14.56,4.19-.19-.74-.37-1.47-.56-2.21-1.37,1.28-2.8,2.33-4.29,3.14-1.48.81-3.01,1.37-4.56,1.69-2.63.53-5.1.34-7.36-.55-2.94-1.18-4.56-3.11-4.95-5.71-.35-2.3.41-4.31,2.2-6.05,2.09-2.06,4.8-3.4,8.23-4.12,1.4-.29,2.66-.46,3.79-.49,1.13-.03,2.45.08,3.98.3ZM305.2,438.52c-2.29-.37-3.99-.44-5.12-.19-.95.21-1.5.67-1.66,1.38-.09.39.05,1.43.41,3.12.36,1.69.73,3.38,1.09,5.06.26,1.11.45,1.78.57,2.01.31.61.98.81,1.99.59.8-.18,1.65-.57,2.53-1.19.89-.62,1.65-1.34,2.3-2.18-.71-2.87-1.41-5.74-2.12-8.61Z"/>
        <path class="cls-15" d="M331,418.52c.39.92.79,1.85,1.18,2.77,1.3-1.85,2.63-3.43,4.03-4.74,1.4-1.3,2.86-2.34,4.4-3.1,2.06-1.02,4-1.5,5.86-1.43,1.4.05,2.54.43,3.42,1.14.88.71,1.89,2.1,3.05,4.18,1.61,2.93,3.22,5.87,4.83,8.8.84,1.46,1.68,2.92,2.52,4.38-4.08,2.26-8.21,4.38-12.4,6.36-.83-1.83-1.67-3.66-2.5-5.49-.61-1.34-1.22-2.68-1.84-4.02-.96-2.01-1.93-4.01-2.89-6.02-.68-1.39-1.09-2.21-1.24-2.47-.15-.26-.33-.46-.55-.62-.44-.31-1.05-.27-1.84.09-.73.34-1.44.88-2.13,1.63-.69.75-1.38,1.71-2.06,2.88.11.28.22.55.33.83.78,1.87,1.56,3.75,2.35,5.62.59,1.44,1.19,2.87,1.78,4.31.86,1.94,1.72,3.89,2.58,5.83.13.28.26.56.39.85-4.27,1.82-8.6,3.49-12.96,5.02-.92-2.68-1.83-5.36-2.75-8.04-.6-1.77-1.2-3.55-1.8-5.32-.56-1.52-1.13-3.04-1.69-4.55-.55-1.47-1.09-2.94-1.64-4.41,3.89-1.36,7.75-2.86,11.56-4.48Z"/>
        <path class="cls-15" d="M374.54,406.19c.25-5.52.14-9.6-.06-12.3-.05-.94-.07-1.5-.05-1.68.02-.19.13-.36.33-.51.26-.21.56-.31.9-.31.34,0,.6.11.77.32.14.17.19.46.16.88-.11,3.73-.19,8.69-.48,14.92-.11,2.49-.27,4.99-.47,7.5-.22,2.58-.56,4.55-.98,5.89-.33.97-.86,1.92-1.6,2.86-.73.94-1.54,1.69-2.43,2.24-.87.54-1.67.85-2.39.93-.72.08-1.21-.09-1.45-.5-.16-.26-.16-.56-.03-.9.14-.34.39-.62.75-.84.27-.16.87-.34,1.81-.53.61-.13,1.1-.31,1.46-.53.7-.45,1.26-1.04,1.67-1.78.41-.74.73-1.73.95-2.98-1.64-.51-3.26-1.05-4.87-1.6-10.35-3.52-16.66-6.34-19.7-7.47,4.54-2.52,8.99-5.24,13.35-8.16,1.87,1.02,3.89,1.94,6.07,2.74,2.17.8,4.27,1.4,6.3,1.8Z"/>
      </g>
      <g id="Fjer_3">
        <path class="cls-16" d="M259.93,147.11c22.41-64.85,125.19-69.73,155.74-2.17,7.92,16.96,5.69,35.83,2.31,35.55h-55.86c-3.44-.17-3.57-8.78-5.29-17.24-6.68-34.58-64.65-44.5-87.83-4.4-5.94,9.83-8.1,21.57-8.3,21.64h-4.42c-.16.19-2.12-17.13,3.66-33.38Z"/>
        <path class="cls-13" d="M259.93,147.11c22.41-64.85,125.19-69.73,155.74-2.17,7.92,16.96,5.69,35.83,2.31,35.55h-55.86c-3.44-.17-3.57-8.78-5.29-17.24-6.68-34.58-64.65-44.5-87.83-4.4-5.94,9.83-8.1,21.57-8.3,21.64h-4.42c-.16.19-2.12-17.13,3.66-33.38Z"/>
      </g>
      <g id="Fjer_2">
        <path class="cls-16" d="M257.37,115.54c22.41-64.85,125.19-69.73,155.74-2.17,7.92,16.96,5.69,35.83,2.31,35.55-18.62,0-37.24,0-55.86,0-3.44-.17-3.57-8.78-5.29-17.24-6.68-34.58-64.65-44.5-87.83-4.4-5.94,9.83-8.1,21.57-8.3,21.64-1.47,0-2.95,0-4.42,0-.16.19-2.12-17.13,3.66-33.38Z"/>
        <path class="cls-13" d="M257.37,115.54c22.41-64.85,125.19-69.73,155.74-2.17,7.92,16.96,5.69,35.83,2.31,35.55-18.62,0-37.24,0-55.86,0-3.44-.17-3.57-8.78-5.29-17.24-6.68-34.58-64.65-44.5-87.83-4.4-5.94,9.83-8.1,21.57-8.3,21.64-1.47,0-2.95,0-4.42,0-.16.19-2.12-17.13,3.66-33.38Z"/>
      </g>
      <g id="Fjer_1">
        <path class="cls-16" d="M257.37,135.92c22.41-64.85,125.19-69.73,155.74-2.17,7.92,16.96,5.69,35.83,2.31,35.55h-55.86c-3.44-.17-3.57-8.78-5.29-17.24-6.68-34.58-64.65-44.5-87.83-4.4-5.94,9.83-8.1,21.57-8.3,21.64h-4.42c-.16.19-2.12-17.13,3.66-33.38Z"/>
        <path class="cls-13" d="M257.37,135.92c22.41-64.85,125.19-69.73,155.74-2.17,7.92,16.96,5.69,35.83,2.31,35.55h-55.86c-3.44-.17-3.57-8.78-5.29-17.24-6.68-34.58-64.65-44.5-87.83-4.4-5.94,9.83-8.1,21.57-8.3,21.64h-4.42c-.16.19-2.12-17.13,3.66-33.38Z"/>
      </g>
      <path id="Helmet" class="cls-14" d="M200.11,198.6c3.5,4.77,26.71-17.95,63.73-15.58,29.56,1.9,45.53,18.37,48.86,14.16,4.54-5.73-17.74-45.69-50.98-48.15-37.38-2.76-65.98,43.59-61.6,49.57Z"/>
      <path id="H-Hole1" class="cls-3" d="M247.22,154.66c-4.67,1.81-12.39,5.49-19.83,12.75-6.98,6.82-10.77,13.92-12.75,18.41"/>
      <path id="H-Hole2" class="cls-5" d="M267.08,153.73c-4.67,1.81-12.39,5.49-19.83,12.75-6.98,6.82-10.77,13.92-12.75,18.41"/>
      <path id="H-Hole3" class="cls-3" d="M283.15,160.78c-3.02,1.1-8.02,3.33-12.83,7.74-4.52,4.14-6.97,8.46-8.25,11.18"/>
      <path id="H-Hole4" class="cls-3" d="M298.59,172.71c-2.34.42-6.32,1.49-10.79,4.63-4.19,2.95-7.05,6.48-8.67,8.76"/>
      <g>
        <path class="cls-2" d="M298.51,102.74c-.22.35-.48.79-.76,1.29-.13.23-.26.46-.38.69-1.42,2.66-2.74,5.33-3.94,8.02,1.74-.22,3.46-.4,5.18-.53,1.22-.1,2.42-.18,3.63-.23.59-.02.81.1.67.36-.11.22-.33.35-.64.39-.07.01-.49.03-1.25.08-5.66.29-11.47,1.03-17.36,2.26.09-.21.18-.43.27-.64.55-1.37,1.12-2.73,1.72-4.1.66-1.46,1.35-2.92,2.07-4.38,1.17-2.51,2.43-5,3.79-7.48,5.89-.67,11.68-.92,17.32-.78.76.02,1.18.05,1.27.07.21.05.25.18.11.38-.17.25-.49.36-.96.35-.04,0-.08,0-.11,0-2.64-.09-5.3-.1-8-.02-.76,1.18-1.49,2.36-2.21,3.55.58-.03,1.16-.06,1.74-.08,1.87-.11,3.74-.17,5.58-.19.41,0,.81,0,1.21,0,.44,0,.71.04.82.09.11.05.11.16,0,.31-.19.29-.62.42-1.31.42-.4-.01-.81-.02-1.22-.03-2.39,0-4.81.06-7.25.2Z"/>
        <path class="cls-2" d="M305.32,110.66c.2,0,.39.11.58.32.3.34.84.64,1.61.89.76.25,1.54.39,2.31.41.36.01.66-.03.89-.11.23-.08.4-.21.5-.38.1-.17.1-.38,0-.63-.11-.25-.39-.73-.85-1.44-1.13-1.71-1.83-2.91-2.05-3.59-.23-.69-.15-1.34.25-1.97.35-.54.9-1.06,1.68-1.53.77-.48,1.68-.86,2.72-1.16,1.71-.49,3.44-.64,5.13-.47,1.25.13,2.42.46,3.52.99.85.42,1.15.79.9,1.11-.08.1-.21.18-.39.24-.18.06-.35.08-.51.06-.19-.02-.44-.19-.77-.51-.67-.64-1.63-1.04-2.89-1.17-.44-.04-.82-.03-1.11.05-.3.08-.52.21-.66.41-.17.24-.17.55,0,.95.16.4.58,1.08,1.24,2.05.64.95,1.04,1.57,1.18,1.86.15.29.26.62.33.98.12.63-.05,1.27-.49,1.94-.7,1.05-1.95,1.82-3.77,2.37-1.5.46-3.09.66-4.81.61-1.91-.05-3.45-.37-4.62-.99-.34-.19-.56-.35-.65-.47-.1-.12-.1-.26-.02-.4.15-.27.42-.42.81-.43Z"/>
        <path class="cls-2" d="M337.11,100.91c-.99.95-1.95,1.91-2.89,2.88-.09.09-.18.19-.27.28.82.2,1.57.37,2.27.51.12.02.22.05.3.07.41.11.5.29.27.53-.21.22-.52.28-.95.16-.13-.03-.29-.08-.47-.15-.7-.23-1.21-.38-1.53-.46-.14-.03-.27-.07-.41-.1-.53.59-1.05,1.19-1.57,1.79-1.01,1.21-1.98,2.43-2.92,3.66-.5.66-.99,1.32-1.47,1.99-.35.47-.53.8-.57,1.01-.04.21.07.33.32.38.33.06.77,0,1.34-.19.56-.19,1.09-.45,1.59-.79.47-.32.84-.45,1.09-.39.3.07.36.23.18.46-.19.24-.57.49-1.14.78-.57.29-1.17.52-1.79.69-1.53.43-3.13.51-4.84.23-1.61-.26-2.64-.78-3.07-1.61-.23-.42-.28-.87-.16-1.33.12-.47.45-1.1,1-1.88.17-.25.35-.5.53-.75.5-.7,1.02-1.4,1.54-2.09.88-1.18,1.79-2.35,2.73-3.5-.13-.03-.22-.05-.28-.06-.09-.02-.3-.04-.6-.08-.26-.03-.46-.06-.63-.08-.48-.08-.62-.24-.43-.48.19-.24.52-.32.98-.25.22.04.36.07.45.09.34.08.69.16,1.03.24.3-.36.6-.73.91-1.09,3.48-.14,6.62-.28,9.45-.47Z"/>
        <path class="cls-2" d="M336.97,112.45c1.16.34,1.93.81,2.32,1.37.39.57.33,1.14-.17,1.72-.51.59-1.26.96-2.25,1.13-1,.17-2.05.1-3.18-.2-1.42-.38-2.28-.92-2.57-1.66-.17-.44-.08-.88.26-1.33.49-.63,1.25-1.06,2.26-1.25,1.02-.19,2.13-.13,3.32.21Z"/>
        <path class="cls-2" d="M353.94,123.3c.14.07.27.14.41.21,1.99,1.05,3.39,1.82,4.3,2.24.31.13.53.24.68.33.22.14.24.29.05.45-.21.18-.45.23-.75.13-.14-.04-.36-.16-.66-.34-3.94-2.35-8.16-4.47-12.64-6.29,2.48-.62,4.64-1.09,6.45-1.48,1.81-.39,3.77-.81,5.91-1.23,2.35-.46,4.09-.76,5.17-.99,1.08-.23,1.79-.45,2.11-.69.38-.27.49-.59.33-.93-.16-.35-.59-.74-1.31-1.17-.71-.43-1.55-.78-2.51-1.07-.96-.28-1.86-.44-2.71-.47-.82-.04-1.59.04-2.32.24-.73.19-1.29.46-1.69.81-.27.23-.45.46-.54.67-.09.21-.14.56-.15,1.05,0,.11-.05.2-.13.27-.09.08-.21.12-.37.13-.16.01-.3,0-.41-.06-.32-.15-.41-.48-.28-.99.13-.51.43-.97.91-1.39.65-.57,1.56-.98,2.72-1.21,1.32-.26,2.74-.24,4.24.08,1.5.32,2.97.91,4.39,1.77,1.54.94,2.6,1.93,3.21,2.93.45.74.57,1.46.37,2.18-.16.58-.56,1.09-1.18,1.53-.48.34-1.07.63-1.75.85-.69.22-1.6.44-2.74.66-2,.39-4.16.78-6.48,1.22-.88.17-1.76.35-2.63.55Z"/>
        <path class="cls-2" d="M378.95,123.47c1.65,1.44,2.26,3.04,1.93,4.74-.32,1.66-1.5,3.03-3.43,4.19-2,1.21-4.11,1.72-6.43,1.58-1.97-.11-3.63-.69-5.06-1.79-.99-.75-1.72-1.62-2.18-2.64-.55-1.21-.62-2.44-.17-3.69.36-.99,1.13-1.96,2.36-2.89,1.98-1.49,4.31-2.16,6.88-1.97,1.14.09,2.25.34,3.31.77,1.07.43,2,.99,2.79,1.67ZM378.11,123.67c-2.13,1.18-4.18,2.43-6.16,3.75-1.6,1.1-3.15,2.24-4.64,3.42-.33.26-.65.52-.98.78,1.15.89,2.42,1.43,3.86,1.64,1.17.16,2.32.13,3.47-.12,1.15-.24,2.25-.68,3.3-1.32,1.86-1.13,2.95-2.42,3.16-3.94.09-.68,0-1.36-.27-2.05-.28-.69-.7-1.29-1.28-1.79-.1-.08-.25-.21-.46-.37Z"/>
        <path class="cls-2" d="M378.27,142.2c.09.1.18.2.27.31,1.32,1.5,2.24,2.57,2.86,3.19.21.2.37.36.46.48.14.18.11.33-.09.44-.22.13-.44.11-.65-.06-.1-.07-.24-.23-.44-.48-2.52-3.2-5.36-6.27-8.51-9.17,2.19.05,4.09.14,5.69.22,1.59.08,3.33.17,5.23.29,2.09.13,3.62.27,4.59.31.97.04,1.63,0,1.97-.14.4-.17.59-.44.56-.81-.03-.37-.27-.85-.74-1.43-.47-.58-1.07-1.13-1.79-1.63-.72-.5-1.43-.88-2.13-1.12-.67-.24-1.34-.35-2-.35-.66,0-1.21.12-1.64.35-.29.16-.5.33-.64.51-.13.18-.28.5-.43.96-.04.1-.1.17-.19.22-.09.05-.21.06-.34.04-.14-.03-.24-.08-.32-.16-.22-.22-.21-.56.05-1.02.26-.45.64-.82,1.15-1.1.71-.39,1.58-.55,2.62-.48,1.17.08,2.36.45,3.52,1.12,1.16.67,2.22,1.6,3.16,2.76,1.01,1.26,1.61,2.46,1.81,3.56.16.81.03,1.53-.35,2.16-.32.51-.81.9-1.46,1.17-.51.21-1.09.34-1.72.39-.64.05-1.47.04-2.48-.02-1.77-.11-3.67-.25-5.7-.39-.77-.05-1.54-.09-2.31-.12Z"/>
        <path class="cls-2" d="M389.88,155.08c-.84.35-1.66.72-2.48,1.1-.93-1.68-1.93-3.34-3.02-4.98.42-.21.83-.41,1.26-.61.34-.16.67-.33,1.01-.49.06-.03.12-.06.18-.09-.05-.08-.11-.16-.16-.24-.18-.29-.37-.58-.56-.86-.45-.66-.92-1.31-1.4-1.96-.13-.17-.26-.34-.39-.52-.23-.31-.36-.54-.39-.69-.03-.15.03-.26.18-.34.11-.06.28-.07.51-.03.23.04.82.17,1.75.41,5.06,1.31,10.11,3.13,15.06,5.51-.25.06-.49.11-.73.17-1.14.28-2.26.58-3.37.9-1.34.4-2.66.83-3.95,1.29-.97.36-1.93.75-2.87,1.15.03.08.06.14.08.19.02.03.06.08.13.15.19.33.37.66.56.99.05.09.1.17.16.26.1.2.03.34-.2.44-.19.08-.34.04-.45-.11-.03-.03-.15-.26-.38-.67-.17-.33-.34-.65-.52-.98ZM387.47,149.72c1.31-.61,2.66-1.2,4.03-1.75-2.15-.71-4.3-1.32-6.46-1.84.39.58.78,1.15,1.16,1.71.43.62.86,1.25,1.27,1.87Z"/>
      </g>
      <path id="Shine_1" class="cls-8" d="M313.54,91.07c.14-1.38,33.3-5.75,62.31,12.04,15.73,9.64,25.7,23.01,24.78,24.07-1.03,1.19-15.13-13.9-39.86-24.7-26.63-11.63-47.35-10.31-47.24-11.41Z"/>
      <path id="Shine_2" class="cls-8" d="M369.65,81.2c20.87,8.08,31.89,26.9,31.57,27.21-.27.26-8-12.1-24.07-20.53-21.66-11.36-43.2-7.58-43.19-8.5,0-.82,17.42-5.26,35.7,1.82Z"/>
      <text class="cls-1" transform="translate(397.03 453.23) scale(1.02 1)"><tspan x="0" y="0">©</tspan></text>
      <g>
        <path class="cls-2" d="M239.37,30.49c-.69-2.45-1.36-4.9-2.01-7.36,1.58-.26,3.16-.51,4.73-.74.1.9.21,1.8.32,2.69.06.88.15,1.7.23,2.61.04,0,.08-.01.12-.02,1.01-1.07,1.99-2.04,2.98-3.06,1.05-1.05,2.11-2.1,3.18-3.14,1.53-.18,3.05-.35,4.57-.51-3.34,2.88-6.6,5.83-9.78,8.85-.7,1.52-1.39,3.04-2.06,4.56-1.43.23-2.86.47-4.29.72.66-1.54,1.33-3.07,2.02-4.6Z"/>
        <path class="cls-2" d="M248.8,28.84c1.52-3.2,5.89-5.43,9.57-5.73,3.68-.31,6.06,1.28,4.44,4.36-1.61,3.07-5.79,5.13-9.39,5.54-3.59.4-6.13-.97-4.61-4.17ZM258.47,27.81c.83-1.62.5-2.61-1.27-2.45-1.77.16-3.2,1.32-4.01,2.96-.81,1.65-.44,2.61,1.31,2.42,1.75-.18,3.13-1.31,3.96-2.93Z"/>
        <path class="cls-2" d="M264.97,28.4c1-1.91,2.03-3.81,3.09-5.71,1.42-.07,2.83-.12,4.24-.16-1.01,1.76-1.99,3.53-2.95,5.3-.71,1.32-.38,1.7.82,1.65,1.05-.04,1.83-.35,3.03-1.08,1.1-1.99,2.23-3.98,3.39-5.96,1.4-.02,2.8-.02,4.19-.02-1.78,2.96-3.49,5.93-5.12,8.92-1.12.02-2.23.05-3.35.09.13-.42.25-.83.38-1.25-.03,0-.07,0-.1,0-1.65.94-3.27,1.57-5.17,1.67-3.04.17-3.64-1.14-2.43-3.46Z"/>
        <path class="cls-2" d="M284.42,22.47c1.13.02,2.25.05,3.38.09-.22.51-.44,1.02-.65,1.53.03,0,.07,0,.1,0,1.73-1.13,3.61-1.64,5.02-1.56.79.04,1.21.13,1.54.26-.7.72-1.4,1.44-2.09,2.16-.44-.1-.8-.18-1.4-.21-1.04-.05-2.57.33-4.03,1.5-1.02,1.69-2.02,3.38-2.99,5.08-1.35-.02-2.71-.02-4.07-.02,1.66-2.96,3.38-5.91,5.18-8.84Z"/>
        <path class="cls-2" d="M295.68,30.33c1.13-.53,2.25-1.05,3.39-1.56.82.78,2.13,1.39,3.57,1.52,1.65.16,2.71-.16,3.15-.8.46-.68-.38-1.01-1.65-1.56-.63-.28-1.25-.55-1.88-.83-1.52-.63-2.66-1.71-1.58-3.32,1.22-1.83,4.91-3.05,8.61-2.59,2.05.25,3.82,1.02,4.66,2.14-1.04.41-2.07.83-3.1,1.25-.77-.69-1.66-1.13-3.06-1.29-1.38-.16-2.51.1-2.94.73-.46.67.54,1.03,1.81,1.58.62.27,1.24.54,1.85.82,1.77.79,2.47,1.83,1.43,3.35-1.23,1.78-4.62,3.03-8.76,2.67-2.26-.2-4.34-.92-5.49-2.1Z"/>
        <path class="cls-2" d="M312.39,30.12c1.17-1.68,2.36-3.35,3.58-5.01,1.3.2,2.6.4,3.9.62-1.16,1.54-2.29,3.09-3.4,4.64-.82,1.15-.57,1.59.53,1.76.96.15,1.72,0,2.91-.5,1.27-1.75,2.56-3.48,3.89-5.21,1.28.24,2.56.49,3.83.74-2.02,2.58-3.98,5.18-5.87,7.8-1.02-.18-2.05-.36-3.08-.53.17-.38.34-.77.51-1.15-.03,0-.06,0-.1-.01-1.63.61-3.19.93-4.95.67-2.8-.4-3.18-1.8-1.77-3.83Z"/>
        <path class="cls-2" d="M327.22,31.56c1.96-2.58,6.29-3.38,9.76-2.52,1.55.38,2.45,1.01,2.98,1.73-.98.32-1.95.64-2.92.98-.35-.45-.74-.71-1.33-.86-1.79-.43-3.63.16-4.66,1.48-1.03,1.33-.49,2.44,1.11,2.8.82.19,1.78.12,2.67-.03.09.6.19,1.2.28,1.81-1.7.35-3.42.26-4.76-.04-3.45-.76-5.09-2.77-3.14-5.34Z"/>
        <path class="cls-2" d="M338.29,34.1c2.02-2.49,6.28-3.09,9.65-2.07,1.5.45,2.37,1.12,2.86,1.86-.97.28-1.93.56-2.89.84-.32-.47-.69-.74-1.27-.92-1.73-.51-3.56,0-4.62,1.27-1.06,1.28-.56,2.41.98,2.84.79.22,1.74.2,2.62.09.07.61.14,1.21.21,1.82-1.68.28-3.36.1-4.66-.26-3.35-.91-4.88-2.99-2.87-5.48Z"/>
        <path class="cls-2" d="M349.03,37.14c2.02-2.33,6.1-2.85,8.94-1.85,3.37,1.19,3.63,3.23,1.88,5.1-.34.37-.76.71-.98.85-2.3-.84-4.63-1.64-6.98-2.4-.59,1.13.17,1.98,1.73,2.5.88.3,1.81.41,2.92.41,0,.55.01,1.1.02,1.64-1.62.08-3.41-.16-4.79-.61-3.31-1.08-4.79-3.26-2.74-5.64ZM357.33,38.88c.7-.76.66-1.51-.74-2-1.1-.38-2.47-.27-3.5.55,1.42.47,2.84.95,4.24,1.45Z"/>
        <path class="cls-2" d="M358.48,43.83c.89-.24,1.79-.47,2.68-.7.6.86,1.31,1.47,2.26,1.84.99.39,1.63.34,1.97-.02.42-.44-.5-1.09-1.41-1.82-1.08-.87-2.2-2.04-1.13-3.16,1.2-1.27,3.8-1.45,6.42-.36,1.74.72,2.61,1.68,3.13,2.51-.89.17-1.78.35-2.66.53-.46-.68-1.03-1.23-1.81-1.55-.87-.35-1.5-.32-1.82,0-.42.43.49,1.02,1.41,1.74,1.12.9,2.24,2.04,1.06,3.25-1.17,1.2-3.62,1.48-6.62.32-1.48-.57-2.83-1.6-3.48-2.59Z"/>
        <path class="cls-2" d="M368.5,47.78c.88-.2,1.76-.4,2.65-.59.55.88,1.23,1.53,2.13,1.94.96.43,1.58.41,1.92.07.43-.42-.44-1.11-1.3-1.88-1.02-.91-2.07-2.13-.98-3.21,1.23-1.21,3.77-1.29,6.3-.09,1.67.79,2.48,1.79,2.96,2.65-.88.13-1.75.27-2.63.42-.42-.7-.95-1.27-1.71-1.63-.84-.39-1.45-.39-1.78-.07-.42.41.44,1.04,1.31,1.8,1.06.94,2.11,2.13.91,3.29-1.19,1.15-3.6,1.33-6.49.03-1.42-.64-2.71-1.72-3.3-2.74Z"/>
        <path class="cls-2" d="M376.42,54.64c1.9.42,3.32.24,3.98-.42.41-.42.83-.85,1.24-1.27-.03.52-.05,1.03-.08,1.55-.47,0-.94-.12-1.36-.33-.97-.49-1.48-1.31-.77-2,.66-.64,1.98-.63,3.06-.08,1.38.71,1.43,1.75.28,2.84-1.44,1.37-3.82,1.75-6.71,1.03.12-.44.24-.88.37-1.32Z"/>
        <path class="cls-2" d="M392.72,54.58c2.93-2.55,7.18-2.51,10.67-.27,3.5,2.25,3.98,5.17,1,7.52-3,2.37-6.96,2.35-10.4.28-3.43-2.06-4.2-4.98-1.28-7.53ZM401.49,59.92c1.83-1.48,1.85-3.06.09-4.18-1.76-1.12-4-.91-5.81.62-1.81,1.54-1.8,3.18-.05,4.24,1.74,1.06,3.95.79,5.78-.69Z"/>
        <path class="cls-2" d="M404.43,64.75c1.43-1.15,2.87-2.28,4.35-3.4.93.65,1.85,1.3,2.76,1.95-1.39,1.03-2.75,2.07-4.1,3.13-1,.79-.95,1.28-.17,1.83.68.48,1.3.61,2.36.56,1.53-1.18,3.09-2.35,4.67-3.5.89.67,1.78,1.34,2.66,2.02-2.4,1.71-4.74,3.45-7.02,5.24-.71-.53-1.42-1.06-2.14-1.58.25-.3.5-.59.76-.89-.02-.02-.04-.03-.07-.05-1.43,0-2.71-.26-3.95-1.13-1.98-1.37-1.82-2.81-.1-4.2Z"/>
        <path class="cls-2" d="M419.24,69.16c.7.56,1.4,1.13,2.1,1.7-.36.34-.72.68-1.08,1.02.02.02.04.03.06.05,1.58-.16,3,.31,3.85,1.04.48.41.71.69.86.96-.76.29-1.51.59-2.26.89-.24-.3-.43-.54-.79-.85-.63-.54-1.77-.94-3.19-.63-1.37.97-2.72,1.96-4.06,2.97-.84-.67-1.68-1.34-2.54-1.99,2.29-1.76,4.64-3.48,7.05-5.16Z"/>
        <path class="cls-2" d="M431.88,76.58c1.21,1.13,2.41,2.27,3.58,3.42,2.26,2.22,3.21,4.48.86,5.86-2.27,1.35-4.99.19-7.14-1.87-.42-.4-.84-.8-1.26-1.2-1.06.7-2.12,1.41-3.16,2.12-.77-.71-1.55-1.42-2.34-2.13,3.06-2.15,6.22-4.22,9.47-6.22ZM430.74,82.78c1.27,1.22,2.38,1.47,3.38.86,1.01-.61.71-1.5-.55-2.72-.36-.35-.71-.69-1.07-1.03-.97.6-1.94,1.21-2.9,1.82.38.36.76.72,1.13,1.08Z"/>
        <path class="cls-2" d="M438.62,86.97c.59.63,1.18,1.26,1.76,1.89-.38.3-.76.6-1.14.9.02.02.04.04.05.06,1.51,0,2.78.6,3.49,1.4.4.45.58.75.69,1.03-.75.22-1.5.44-2.24.66-.18-.32-.33-.58-.64-.91-.53-.59-1.54-1.11-2.92-.93-1.41.83-2.8,1.68-4.17,2.54-.7-.75-1.41-1.49-2.13-2.23,2.36-1.52,4.77-2.99,7.24-4.42Z"/>
        <path class="cls-2" d="M444.34,93.29c.68.79,1.35,1.58,2.01,2.38-2.49,1.31-4.93,2.68-7.31,4.08-.66-.77-1.32-1.53-2-2.29,2.38-1.44,4.81-2.83,7.29-4.17ZM446.44,91.91c.68-.36,1.67-.02,2.35.79.68.81.67,1.65-.01,2-.68.35-1.65.01-2.33-.79-.68-.8-.69-1.64-.01-2Z"/>
        <path class="cls-2" d="M443.99,99.28c2.44-1.34,5.44-.17,7.02,1.92,1.6,2.09,1.54,4.72-.91,5.95-2.45,1.23-5.21.11-6.79-1.89-1.57-2-1.75-4.64.68-5.98ZM448.26,104.68c1.27-.66,1.74-1.58.97-2.58-.77-1-2-1.07-3.27-.38-1.27.68-1.69,1.62-.92,2.59.77.98,1.95,1.03,3.22.37Z"/>
        <path class="cls-2" d="M455.04,107.02c.47.68.94,1.35,1.41,2.03-.4.26-.8.52-1.19.78.01.02.03.04.04.06,1.42.14,2.53.85,3.1,1.72.32.48.44.79.51,1.08-.73.14-1.47.29-2.19.44-.13-.33-.24-.6-.48-.96-.42-.63-1.3-1.23-2.62-1.19-1.43.69-2.85,1.39-4.25,2.11-.56-.8-1.13-1.6-1.7-2.4,2.41-1.27,4.87-2.5,7.39-3.67Z"/>
        <path class="cls-2" d="M459.56,113.8c.53.84,1.06,1.69,1.58,2.53-2.53,1.06-5,2.17-7.43,3.34-.51-.82-1.03-1.63-1.56-2.44,2.42-1.19,4.9-2.34,7.42-3.43ZM461.73,112.63c.69-.29,1.58.14,2.11,1,.53.86.41,1.69-.28,1.96-.69.28-1.56-.14-2.09-1-.53-.85-.43-1.68.26-1.97Z"/>
        <path class="cls-2" d="M457.91,120.94c1-.44,2-.88,3.01-1.3-.23-.39-.46-.78-.69-1.17.55-.24,1.11-.47,1.67-.7.29.43.58.85.87,1.28.73-.17,1.46-.34,2.2-.51.41.71.81,1.42,1.21,2.14-.68.26-1.35.52-2.03.78.39.69.77,1.39,1.15,2.08-.59.23-1.18.46-1.76.69-.38-.69-.76-1.38-1.15-2.06-1,.41-2,.83-2.99,1.26-.84.36-.92.95-.55,1.6.16.28.4.55.59.74-.46.36-.91.72-1.36,1.08-.37-.39-.85-.93-1.32-1.74-1.19-2.06-.56-3.41,1.15-4.18Z"/>
        <path class="cls-2" d="M455.91,129.24c.62-.1,1.25-.2,1.88-.3.05.17.11.42.21.61.44.82,1.06,1.08,1.74,1.05.15-.01.3-.02.45-.04,1.82-2.1,3.66-4.17,5.53-6.23.46.86.92,1.73,1.36,2.6-.88.82-1.75,1.64-2.61,2.47-.55.51-1.15,1-1.77,1.51.01.02.02.05.03.07.8-.09,1.6-.18,2.41-.23,1.25-.06,2.51-.11,3.77-.13.4.83.79,1.66,1.18,2.5-3.04-.15-6.04-.2-9-.15-2.24-.04-3.62-.51-4.68-2.47-.28-.52-.4-.87-.5-1.25Z"/>
      </g>
      <ellipse id="Tounge" class="cls-12" cx="250.64" cy="342.53" rx="16.72" ry="10.91"/>
    </g>
  </g>
</svg>